<svg xmlns="http://www.w3.org/2000/svg" version="1.1" xmlns:xlink="http://www.w3.org/1999/xlink" xmlns:svgjs="http://svgjs.dev/svgjs" viewBox="0 0 800 800"><g fill="none" stroke-width="1" stroke="#c0c0c0" stroke-linecap="round"><path d="M905.53 590.8C824.21 614.27 722.41 631.31 624.96 640.17 551.06 646.46 513.96 640.27 515.61 619.14 553.69 593.33 613.52 553.49 679.59 505.06 746 465.83 795.5 436.42 822.68 431.5 830.5 462.17 815.87 530.42 784.79 632.14 740.63 745.52 689.67 850.27 638.31 915.76 583.42 921.59 533.53 862.32 491.51 753.19 449.29 637.08 415.79 551.76 392.32 534.55 368.85 597.28 356.51 710.05 354.47 826.98 352.22 911.3 359.41 930.36 373.63 883.37 384.31 786.26 396.61 668.86 404.6 562.17 399.5 483.53 380.43 446.82 341.84 447.85 283.91 481.69 206.58 530.72 115.73 579.77 25.22 629.94 -55.65 664.64 -110.94 681.95 -129.79 691.21 -106.06 686.26 -41.21 671.65 47.17 654 144.21 632.2 225.53 608.73 266.42 585.25 260.07 561.22 212.32 534.6 132.92 504.95 45.71 467.2 -29.28 417.26 -82.89 359.28 -101.15 285.92 -84.62 199.58 -38.43 114.35 29.47 31.62 107.11 -32.97 190.31 -64.77 267.3 -55.88 332.95 -1.69 390.33 80.55 434.84 176.91 468.84 256.81 496.12 286.59 518.07 254.17 538.21 160.8 556.44 34.81 576.54 -82.71 600.02 -145.44 623.48 -128.23 649.21 -38.16 675.25 87 709.75 241.5 737.29 199.06 713.16 68.27 683.69 -9 640.4 -49.42 587.96 -49.33 541.09 -13.64 501 49.45 479.24 124.87 487.14 209.47 526.45 287.96 597.25 354.44 689.45 416.26 790.01 465.15 878.48 503.12 935.3 538.53 946.42 567.32 905.56 590.79Q905.53 590.8 905.53 590.8" opacity="0.89"></path><path d="M820.55 209.46C762.4 227.07 689.4 240.34 612.57 250.73 540.33 262.81 481.25 275.32 440.33 291.7 420.95 343.1 467.08 439.3 534.8 585.32 613.27 729.46 659.33 827.64 668.42 802.1 668.37 744.27 661.78 663.49 650.32 574.85 637.83 501.04 622.37 454.76 604.77 449.55 587.16 489.98 568.25 563.15 547.54 650.47 525.8 737.66 500.36 803.09 469.91 836.15 399.8 800.16 298.79 660.66 174.17 509.44 60.31 384.88 -23.16 321.73 -29.58 296.85 -1.57 293.71 47.49 291.12 112.93 285.47 182.97 281.22 252.4 271.04 310.55 253.44 345.74 235.83 355.04 211.64 339.53 182.68 300.64 155.13 247.58 125.71 189.09 98.34 71.61 62.2 8.64 70.4 10.83 148.81 62.35 253.89 144.7 356.04 225.21 366.23 267.85 320.26 305.77 244.81 337.41 150.83 369.11 56.72 394.23 -20.01 411.83 -60.44 429.43 -55.23 438.7 -5.38 440.2 75.21 441.75 170.65 435.86 261.44 423.73 332.17 404.23 383.53 376.83 322.69 371.45 224.7 415.41 124.82 515.72 83.57 659.01 93.18 730.41 107.32 793.49 126.83 839.17 147.95 861.47 170.75 855.74 191.86 820.55 209.46Q820.55 209.46 820.55 209.46" opacity="0.79"></path><path d="M735.53 462.27C654.22 485.74 552.5 533.17 457.59 594.91 380.94 649.72 333.32 701.98 311.75 728.57 312.31 719.66 322.01 663 327.88 563.48 338.38 461.95 334.69 381.76 311.22 364.55 287.74 427.28 246.72 534.57 195.54 638.49 148.99 718.29 102.66 742.99 71.34 720.35 62.15 663.62 84.87 591.54 144.31 526.75 222.02 458.69 314.22 409.48 395.53 386.01 436.42 362.54 433.24 367.03 396.1 394.4 330.8 418.52 263.8 453.97 212.02 479.93 167.45 471.81 146.91 422.22 147.05 325.23 153.44 204.11 170.94 87.31 194.41 24.56 217.88 41.74 245.1 131.43 279.39 250.17 319.91 366.9 377.08 448.47 452.42 488.15 534.95 492.33 626.85 476.7 709.36 462.56 763.72 441.5 776.42 438.79 735.56 462.26Q735.53 462.27 735.53 462.27" opacity="0.48"></path></g></svg>