<svg width="199" height="46" viewBox="0 0 199 46" fill="none" xmlns="http://www.w3.org/2000/svg">
<path d="M180.797 3.96485V0.288361H198.119V3.96485H191.662V21.3793H187.254V3.96485H180.797Z" fill="black"/>
<path d="M164.636 21.3793V0.288361H178.601V3.96485H169.095V8.99042H177.674V12.6669H169.095V21.3793H164.636Z" fill="black"/>
<path d="M146.578 21.3793H141.8L149.081 0.288361H154.827L162.098 21.3793H157.319L152.036 5.10796H151.872L146.578 21.3793ZM146.28 13.0891H157.567V16.57H146.28V13.0891Z" fill="black"/>
<path d="M123.912 21.3793V0.288361H132.233C133.826 0.288361 135.185 0.57328 136.311 1.14312C137.444 1.70609 138.305 2.50593 138.896 3.54262C139.493 4.57245 139.792 5.78422 139.792 7.17792C139.792 8.57849 139.49 9.78339 138.885 10.7926C138.281 11.795 137.406 12.5639 136.259 13.0994C135.12 13.635 133.74 13.9027 132.119 13.9027H126.548V10.3189H131.399C132.25 10.3189 132.957 10.2022 133.52 9.96876C134.083 9.73533 134.502 9.38519 134.776 8.91833C135.058 8.45148 135.199 7.87134 135.199 7.17792C135.199 6.47764 135.058 5.8872 134.776 5.40661C134.502 4.92603 134.08 4.56215 133.51 4.31499C132.947 4.06097 132.236 3.93396 131.378 3.93396H128.371V21.3793H123.912ZM135.302 11.7813L140.543 21.3793H135.621L130.492 11.7813H135.302Z" fill="black"/>
<path d="M120.714 7.67223H116.203C116.121 7.08866 115.953 6.57031 115.699 6.11719C115.445 5.6572 115.119 5.26586 114.72 4.94318C114.322 4.6205 113.862 4.37334 113.34 4.2017C112.826 4.03007 112.266 3.94425 111.662 3.94425C110.57 3.94425 109.619 4.21544 108.809 4.75781C107.999 5.29332 107.371 6.07599 106.925 7.10582C106.478 8.12879 106.255 9.37145 106.255 10.8338C106.255 12.3374 106.478 13.6006 106.925 14.6236C107.378 15.6465 108.009 16.4189 108.82 16.9407C109.63 17.4625 110.567 17.7234 111.631 17.7234C112.228 17.7234 112.781 17.6444 113.289 17.4865C113.804 17.3286 114.26 17.0986 114.659 16.7965C115.057 16.4876 115.386 16.1134 115.647 15.674C115.915 15.2346 116.1 14.7334 116.203 14.1705L120.714 14.1911C120.597 15.1591 120.306 16.0928 119.839 16.9922C119.379 17.8847 118.757 18.6845 117.975 19.3917C117.199 20.092 116.272 20.6481 115.194 21.06C114.123 21.4651 112.911 21.6676 111.559 21.6676C109.678 21.6676 107.996 21.242 106.513 20.3906C105.037 19.5393 103.869 18.3069 103.011 16.6935C102.16 15.0801 101.734 13.1269 101.734 10.8338C101.734 8.53386 102.167 6.57718 103.032 4.96378C103.897 3.35038 105.071 2.12145 106.554 1.27699C108.037 0.425663 109.705 0 111.559 0C112.781 0 113.914 0.171638 114.957 0.514915C116.008 0.858191 116.938 1.35937 117.748 2.01847C118.558 2.67069 119.217 3.47053 119.725 4.41797C120.24 5.36541 120.57 6.45017 120.714 7.67223Z" fill="black"/>
<path d="M98.4209 0.288361V21.3793H94.5693L85.3935 8.10477H85.239V21.3793H80.7799V0.288361H84.6932L93.7969 13.5526H93.9823V0.288361H98.4209Z" fill="black"/>
<path d="M77.4767 10.8338C77.4767 13.1338 77.0407 15.0904 76.1688 16.7038C75.3037 18.3172 74.1228 19.5496 72.6262 20.4009C71.1363 21.2454 69.4611 21.6676 67.6006 21.6676C65.7263 21.6676 64.0442 21.242 62.5544 20.3906C61.0646 19.5393 59.8872 18.3069 59.0221 16.6935C58.157 15.0801 57.7245 13.1269 57.7245 10.8338C57.7245 8.53386 58.157 6.57718 59.0221 4.96378C59.8872 3.35038 61.0646 2.12145 62.5544 1.27699C64.0442 0.425663 65.7263 0 67.6006 0C69.4611 0 71.1363 0.425663 72.6262 1.27699C74.1228 2.12145 75.3037 3.35038 76.1688 4.96378C77.0407 6.57718 77.4767 8.53386 77.4767 10.8338ZM72.9557 10.8338C72.9557 9.34399 72.7326 8.08759 72.2863 7.06463C71.8469 6.04167 71.2256 5.26586 70.4223 4.73722C69.6191 4.20857 68.6785 3.94425 67.6006 3.94425C66.5227 3.94425 65.5821 4.20857 64.7789 4.73722C63.9756 5.26586 63.3508 6.04167 62.9046 7.06463C62.4652 8.08759 62.2455 9.34399 62.2455 10.8338C62.2455 12.3236 62.4652 13.58 62.9046 14.603C63.3508 15.6259 63.9756 16.4018 64.7789 16.9304C65.5821 17.459 66.5227 17.7234 67.6006 17.7234C68.6785 17.7234 69.6191 17.459 70.4223 16.9304C71.2256 16.4018 71.8469 15.6259 72.2863 14.603C72.7326 13.58 72.9557 12.3236 72.9557 10.8338Z" fill="black"/>
<path d="M54.4265 0.288361V21.3793H49.9673V0.288361H54.4265Z" fill="black"/>
<path d="M42.4058 6.35405C42.3234 5.52332 41.9699 4.87796 41.3451 4.41797C40.7203 3.95798 39.8724 3.72798 38.8014 3.72798C38.0737 3.72798 37.4592 3.83097 36.958 4.03693C36.4568 4.23603 36.0724 4.51409 35.8046 4.87109C35.5437 5.2281 35.4133 5.63317 35.4133 6.08629C35.3995 6.4639 35.4785 6.79344 35.6501 7.07493C35.8286 7.35642 36.0724 7.60014 36.3813 7.80611C36.6903 8.00521 37.0473 8.18028 37.4523 8.33132C37.8574 8.4755 38.2899 8.59908 38.7499 8.70206L40.6448 9.15518C41.5648 9.36115 42.4093 9.63577 43.1782 9.97905C43.9471 10.3223 44.6131 10.7446 45.1761 11.2457C45.739 11.7469 46.175 12.3374 46.4839 13.017C46.7998 13.6967 46.9611 14.476 46.968 15.3548C46.9611 16.6455 46.6316 17.7646 45.9793 18.712C45.334 19.6526 44.4003 20.3838 43.1782 20.9055C41.963 21.4205 40.4972 21.6779 38.7808 21.6779C37.0782 21.6779 35.5952 21.417 34.332 20.8952C33.0756 20.3735 32.0938 19.6011 31.3866 18.5781C30.6864 17.5483 30.3191 16.2747 30.2847 14.7575H34.5997C34.6478 15.4646 34.8503 16.055 35.2073 16.5288C35.5712 16.9956 36.0552 17.3492 36.6594 17.5895C37.2704 17.8229 37.9604 17.9396 38.7293 17.9396C39.4845 17.9396 40.1402 17.8298 40.6963 17.6101C41.2593 17.3904 41.6952 17.0849 42.0042 16.6935C42.3131 16.3022 42.4676 15.8525 42.4676 15.3445C42.4676 14.8707 42.3269 14.4725 42.0454 14.1499C41.7708 13.8272 41.3657 13.5526 40.8302 13.326C40.3015 13.0994 39.6527 12.8935 38.8838 12.7081L36.5873 12.1314C34.8091 11.6989 33.4051 11.0226 32.3753 10.1026C31.3455 9.18265 30.834 7.94342 30.8408 6.38494C30.834 5.10795 31.1738 3.99231 31.8604 3.038C32.5538 2.08369 33.5047 1.33878 34.713 0.803267C35.9213 0.267755 37.2944 0 38.8323 0C40.3977 0 41.7639 0.267755 42.931 0.803267C44.105 1.33878 45.0182 2.08369 45.6704 3.038C46.3226 3.99231 46.659 5.09766 46.6796 6.35405H42.4058Z" fill="black"/>
<path d="M27.2956 0.288361V21.3793H22.8365V0.288361H27.2956Z" fill="black"/>
<path d="M4.95348 0.288361L10.0511 16.3125H10.2468L15.3548 0.288361H20.2979L13.0273 21.3793H7.2809L0 0.288361H4.95348Z" fill="black"/>
<path d="M97.9111 35.3394C97.9111 37.3583 97.5418 39.0941 96.8032 40.5468C96.0645 41.9933 95.052 43.1074 93.7655 43.8891C92.4852 44.6647 91.0295 45.0524 89.3983 45.0524C87.761 45.0524 86.2991 44.6647 85.0127 43.8891C83.7324 43.1074 82.7229 41.9902 81.9843 40.5375C81.2456 39.0849 80.8763 37.3522 80.8763 35.3394C80.8763 33.3204 81.2456 31.5877 81.9843 30.1412C82.7229 28.6886 83.7324 27.5745 85.0127 26.7989C86.2991 26.0172 87.761 25.6263 89.3983 25.6263C91.0295 25.6263 92.4852 26.0172 93.7655 26.7989C95.052 27.5745 96.0645 28.6886 96.8032 30.1412C97.5418 31.5877 97.9111 33.3204 97.9111 35.3394ZM95.0858 35.3394C95.0858 33.8006 94.8365 32.5049 94.338 31.4523C93.8455 30.3936 93.1685 29.5934 92.3067 29.0517C91.4511 28.5039 90.4817 28.23 89.3983 28.23C88.3088 28.23 87.3363 28.5039 86.4807 29.0517C85.6251 29.5934 84.948 30.3936 84.4495 31.4523C83.957 32.5049 83.7108 33.8006 83.7108 35.3394C83.7108 36.8782 83.957 38.177 84.4495 39.2357C84.948 40.2882 85.6251 41.0884 86.4807 41.6363C87.3363 42.1779 88.3088 42.4488 89.3983 42.4488C90.4817 42.4488 91.4511 42.1779 92.3067 41.6363C93.1685 41.0884 93.8455 40.2882 94.338 39.2357C94.8365 38.177 95.0858 36.8782 95.0858 35.3394Z" fill="black"/>
<path d="M77.3309 25.8848V44.7939H74.4779V25.8848H77.3309Z" fill="black"/>
<path d="M61.8357 44.7939H55.7142V25.8848H62.0295C63.8823 25.8848 65.4734 26.2634 66.803 27.0205C68.1325 27.7714 69.1512 28.8517 69.8591 30.2612C70.5731 31.6647 70.9301 33.3481 70.9301 35.3117C70.9301 37.2814 70.57 38.9741 69.8499 40.3898C69.1358 41.8055 68.1017 42.895 66.7476 43.6583C65.3934 44.4154 63.7561 44.7939 61.8357 44.7939ZM58.5672 42.301H61.6787C63.119 42.301 64.3162 42.0302 65.2703 41.4885C66.2244 40.9407 66.9384 40.1497 67.4124 39.1157C67.8863 38.0754 68.1233 36.8074 68.1233 35.3117C68.1233 33.8282 67.8863 32.5695 67.4124 31.5354C66.9446 30.5013 66.2459 29.7165 65.3165 29.181C64.387 28.6455 63.2329 28.3777 61.8541 28.3777H58.5672V42.301Z" fill="black"/>
<path d="M48.7041 25.8848H51.5663V38.3216C51.5663 39.645 51.2555 40.8176 50.6338 41.8394C50.0121 42.855 49.1381 43.6552 48.0116 44.2399C46.8852 44.8185 45.5649 45.1078 44.0507 45.1078C42.5427 45.1078 41.2254 44.8185 40.099 44.2399C38.9726 43.6552 38.0985 42.855 37.4768 41.8394C36.8552 40.8176 36.5443 39.645 36.5443 38.3216V25.8848H39.3973V38.0908C39.3973 38.9464 39.585 39.7066 39.9605 40.3713C40.3421 41.0361 40.8807 41.5593 41.5763 41.9409C42.2718 42.3164 43.0966 42.5041 44.0507 42.5041C45.0109 42.5041 45.8388 42.3164 46.5344 41.9409C47.2361 41.5593 47.7716 41.0361 48.1409 40.3713C48.5164 39.7066 48.7041 38.9464 48.7041 38.0908V25.8848Z" fill="black"/>
<path d="M18.6762 28.3408V25.8848H33.3105V28.3408H27.4106V44.7939H24.5669V28.3408H18.6762Z" fill="black"/>
<path d="M13.1896 30.8522C13.0911 29.9781 12.6848 29.301 11.9708 28.8209C11.2568 28.3346 10.3581 28.0915 9.27479 28.0915C8.49922 28.0915 7.82829 28.2146 7.262 28.4608C6.69571 28.7009 6.25561 29.0333 5.94169 29.458C5.63392 29.8765 5.48004 30.3536 5.48004 30.8891C5.48004 31.3384 5.58468 31.7262 5.79396 32.0524C6.0094 32.3787 6.28946 32.6526 6.63416 32.8742C6.98501 33.0896 7.36049 33.2712 7.76058 33.4189C8.16068 33.5605 8.54538 33.6774 8.9147 33.7698L10.7613 34.2499C11.3645 34.3976 11.9831 34.5977 12.6171 34.85C13.2511 35.1024 13.8389 35.4348 14.3806 35.8472C14.9223 36.2596 15.3593 36.7705 15.6917 37.3799C16.0302 37.9892 16.1995 38.7186 16.1995 39.5681C16.1995 40.6391 15.9225 41.5901 15.3685 42.4211C14.8207 43.252 14.0236 43.9076 12.9772 44.3877C11.937 44.8678 10.6782 45.1078 9.20092 45.1078C7.7852 45.1078 6.5603 44.8832 5.52621 44.4338C4.49212 43.9845 3.68269 43.3474 3.09794 42.5226C2.51319 41.6917 2.19003 40.7068 2.12848 39.5681H4.99069C5.04609 40.2513 5.26768 40.8207 5.65547 41.2762C6.04941 41.7255 6.55106 42.061 7.16044 42.2826C7.77597 42.498 8.44998 42.6057 9.18246 42.6057C9.9888 42.6057 10.7059 42.4795 11.3337 42.2272C11.9677 41.9686 12.4663 41.6116 12.8295 41.1561C13.1926 40.6945 13.3742 40.1559 13.3742 39.5404C13.3742 38.9802 13.2142 38.5217 12.8941 38.1647C12.5802 37.8077 12.1524 37.5122 11.6107 37.2783C11.0752 37.0444 10.4689 36.8382 9.79183 36.6597L7.55746 36.0503C6.04325 35.6379 4.84297 35.0316 3.9566 34.2314C3.0764 33.4312 2.63629 32.3725 2.63629 31.0553C2.63629 29.9658 2.93175 29.0148 3.52266 28.2023C4.11356 27.3898 4.91375 26.7589 5.92322 26.3096C6.93269 25.8541 8.07142 25.6263 9.33942 25.6263C10.6197 25.6263 11.7492 25.851 12.7279 26.3003C13.7128 26.7497 14.4883 27.3683 15.0546 28.1561C15.6209 28.9379 15.9164 29.8365 15.941 30.8522H13.1896Z" fill="black"/>
</svg>
